Rokkitt Light 100-500.ufo
<glyph name="ampersand" format="1">
  <advance width="1201"/>
  <unicode hex="0026"/>
  <outline>
    <contour>
      <point x="453" y="-19" type="curve" smooth="yes"/>
      <point x="569" y="-19"/>
      <point x="683" y="26"/>
      <point x="794" y="115" type="curve"/>
      <point x="880" y="0" type="line"/>
      <point x="1140" y="0" type="line"/>
      <point x="1140" y="125" type="line"/>
      <point x="956" y="125" type="line"/>
      <point x="883" y="223" type="line"/>
      <point x="935" y="278"/>
      <point x="978" y="355"/>
      <point x="1011" y="456" type="curve"/>
      <point x="1140" y="456" type="line"/>
      <point x="1140" y="583" type="line"/>
      <point x="910" y="583" type="line"/>
      <point x="889" y="485"/>
      <point x="854" y="401"/>
      <point x="803" y="332" type="curve"/>
      <point x="563" y="621" type="line"/>
      <point x="728" y="692"/>
      <point x="810" y="795"/>
      <point x="810" y="930" type="curve" smooth="yes"/>
      <point x="810" y="1073"/>
      <point x="679" y="1172"/>
      <point x="531" y="1172" type="curve" smooth="yes"/>
      <point x="379" y="1172"/>
      <point x="242" y="1067"/>
      <point x="242" y="916" type="curve" smooth="yes"/>
      <point x="242" y="851"/>
      <point x="281" y="769"/>
      <point x="359" y="670" type="curve"/>
      <point x="155" y="596"/>
      <point x="53" y="481"/>
      <point x="53" y="325" type="curve" smooth="yes"/>
      <point x="53" y="117"/>
      <point x="238" y="-19"/>
    </contour>
    <contour>
      <point x="479" y="116" type="curve" smooth="yes"/>
      <point x="333" y="116"/>
      <point x="207" y="199"/>
      <point x="207" y="335" type="curve" smooth="yes"/>
      <point x="207" y="440"/>
      <point x="283" y="520"/>
      <point x="435" y="573" type="curve"/>
      <point x="717" y="219" type="line"/>
      <point x="642" y="150"/>
      <point x="563" y="116"/>
    </contour>
    <contour>
      <point x="491" y="720" type="curve"/>
      <point x="438" y="791"/>
      <point x="382" y="842"/>
      <point x="382" y="936" type="curve" smooth="yes"/>
      <point x="382" y="1009"/>
      <point x="452" y="1045"/>
      <point x="529" y="1045" type="curve" smooth="yes"/>
      <point x="612" y="1045"/>
      <point x="676" y="1008"/>
      <point x="676" y="926" type="curve" smooth="yes"/>
      <point x="676" y="818"/>
      <point x="581" y="767"/>
    </contour>
  </outline>
</glyph>
<glyph name="two" format="1">
  <advance width="1006"/>
  <unicode hex="0032"/>
  <outline>
    <contour>
      <point x="116" y="0" type="line"/>
      <point x="892" y="0" type="line"/>
      <point x="892" y="348" type="line"/>
      <point x="765" y="348" type="line"/>
      <point x="765" y="116" type="line"/>
      <point x="314" y="116" type="line"/>
      <point x="673" y="477" type="line" smooth="yes"/>
      <point x="830" y="634"/>
      <point x="881" y="739"/>
      <point x="881" y="843" type="curve" smooth="yes"/>
      <point x="881" y="1043"/>
      <point x="745" y="1170"/>
      <point x="506" y="1170" type="curve" smooth="yes"/>
      <point x="231" y="1170"/>
      <point x="112" y="1026"/>
      <point x="112" y="832" type="curve" smooth="yes"/>
      <point x="112" y="789"/>
      <point x="117" y="743"/>
      <point x="129" y="695" type="curve"/>
      <point x="269" y="695" type="line"/>
      <point x="259" y="737"/>
      <point x="254" y="776"/>
      <point x="254" y="812" type="curve" smooth="yes"/>
      <point x="254" y="956"/>
      <point x="337" y="1041"/>
      <point x="506" y="1041" type="curve" smooth="yes"/>
      <point x="648" y="1041"/>
      <point x="728" y="967"/>
      <point x="728" y="848" type="curve" smooth="yes"/>
      <point x="728" y="768"/>
      <point x="687" y="692"/>
      <point x="581" y="586" type="curve" smooth="yes"/>
      <point x="115" y="116" type="line"/>
    </contour>
  </outline>
</glyph>
<glyph name="four" format="1">
  <advance width="1006"/>
  <unicode hex="0034"/>
  <outline>
    <contour>
      <point x="398" y="0" type="line"/>
      <point x="886" y="0" type="line"/>
      <point x="886" y="116" type="line"/>
      <point x="725" y="116" type="line"/>
      <point x="725" y="315" type="line"/>
      <point x="915" y="315" type="line"/>
      <point x="915" y="436" type="line"/>
      <point x="725" y="436" type="line"/>
      <point x="725" y="1152" type="line"/>
      <point x="587" y="1152" type="line"/>
      <point x="60" y="426" type="line"/>
      <point x="77" y="315" type="line"/>
      <point x="583" y="315" type="line"/>
      <point x="583" y="116" type="line"/>
      <point x="398" y="116" type="line"/>
    </contour>
    <contour>
      <point x="221" y="436" type="line"/>
      <point x="583" y="946" type="line"/>
      <point x="583" y="436" type="line"/>
    </contour>
  </outline>
</glyph>
<glyph name="C" format="1">
  <advance width="1292"/>
  <unicode hex="0043"/>
  <outline>
    <contour>
      <point x="714" y="1153" type="move" name="top"/>
    </contour>
    <contour>
      <point x="692" y="0" type="move" name="bot"/>
    </contour>
    <contour>
      <point x="692" y="-18" type="curve" smooth="yes"/>
      <point x="955" y="-18"/>
      <point x="1139" y="113"/>
      <point x="1219" y="307" type="curve"/>
      <point x="1084" y="378" type="line"/>
      <point x="1027" y="203"/>
      <point x="893" y="116"/>
      <point x="681" y="116" type="curve" smooth="yes"/>
      <point x="444" y="116"/>
      <point x="277" y="308"/>
      <point x="277" y="580" type="curve" smooth="yes"/>
      <point x="277" y="848"/>
      <point x="445" y="1037"/>
      <point x="682" y="1037" type="curve" smooth="yes"/>
      <point x="862" y="1037"/>
      <point x="987" y="960"/>
      <point x="1063" y="807" type="curve"/>
      <point x="1188" y="807" type="line"/>
      <point x="1188" y="1153" type="line"/>
      <point x="1058" y="1153" type="line"/>
      <point x="1058" y="1022" type="line"/>
      <point x="963" y="1121"/>
      <point x="843" y="1171"/>
      <point x="700" y="1171" type="curve" smooth="yes"/>
      <point x="351" y="1171"/>
      <point x="100" y="939"/>
      <point x="100" y="575" type="curve" smooth="yes"/>
      <point x="102" y="214"/>
      <point x="348" y="-18"/>
    </contour>
  </outline>
</glyph>
<glyph name="G" format="1">
  <advance width="1362"/>
  <unicode hex="0047"/>
  <outline>
    <contour>
      <point x="690" y="1153" type="move" name="top"/>
    </contour>
    <contour>
      <point x="718" y="0" type="move" name="bot"/>
    </contour>
    <contour>
      <point x="716" y="-18" type="curve" smooth="yes"/>
      <point x="1079" y="-18"/>
      <point x="1265" y="179"/>
      <point x="1265" y="563" type="curve"/>
      <point x="874" y="563" type="line"/>
      <point x="874" y="436" type="line"/>
      <point x="1101" y="436" type="line"/>
      <point x="1094" y="235"/>
      <point x="961" y="116"/>
      <point x="715" y="116" type="curve" smooth="yes"/>
      <point x="463" y="116"/>
      <point x="285" y="307"/>
      <point x="285" y="576" type="curve" smooth="yes"/>
      <point x="285" y="846"/>
      <point x="459" y="1037"/>
      <point x="704" y="1037" type="curve" smooth="yes"/>
      <point x="881" y="1037"/>
      <point x="1009" y="960"/>
      <point x="1088" y="806" type="curve"/>
      <point x="1212" y="806" type="line"/>
      <point x="1212" y="1153" type="line"/>
      <point x="1082" y="1153" type="line"/>
      <point x="1082" y="1022" type="line"/>
      <point x="983" y="1121"/>
      <point x="854" y="1171"/>
      <point x="695" y="1171" type="curve" smooth="yes"/>
      <point x="352" y="1171"/>
      <point x="108" y="925"/>
      <point x="108" y="575" type="curve" smooth="yes"/>
      <point x="108" y="201"/>
      <point x="372" y="-18"/>
    </contour>
  </outline>
</glyph>
<glyph name="M" format="1">
  <advance width="1598"/>
  <unicode hex="004D"/>
  <outline>
    <contour>
      <point x="812" y="1153" type="move" name="top"/>
    </contour>
    <contour>
      <point x="76" y="0" type="line"/>
      <point x="491" y="0" type="line"/>
      <point x="491" y="116" type="line"/>
      <point x="358" y="116" type="line"/>
      <point x="358" y="1022" type="line"/>
      <point x="770" y="45" type="line"/>
      <point x="812" y="45" type="line"/>
      <point x="1227" y="1023" type="line"/>
      <point x="1227" y="116" type="line"/>
      <point x="1094" y="116" type="line"/>
      <point x="1094" y="0" type="line"/>
      <point x="1522" y="0" type="line"/>
      <point x="1522" y="116" type="line"/>
      <point x="1375" y="116" type="line"/>
      <point x="1375" y="1037" type="line"/>
      <point x="1522" y="1037" type="line"/>
      <point x="1522" y="1153" type="line"/>
      <point x="1132" y="1153" type="line"/>
      <point x="794" y="362" type="line"/>
      <point x="461" y="1153" type="line"/>
      <point x="76" y="1153" type="line"/>
      <point x="76" y="1037" type="line"/>
      <point x="224" y="1037" type="line"/>
      <point x="224" y="116" type="line"/>
      <point x="76" y="116" type="line"/>
    </contour>
  </outline>
</glyph>
<glyph name="N" format="1">
  <advance width="1371"/>
  <unicode hex="004E"/>
  <outline>
    <contour>
      <point x="682" y="1153" type="move" name="top"/>
    </contour>
    <contour>
      <point x="717" y="0" type="move" name="bot"/>
    </contour>
    <contour>
      <point x="76" y="0" type="line"/>
      <point x="548" y="0" type="line"/>
      <point x="548" y="116" type="line"/>
      <point x="379" y="116" type="line"/>
      <point x="379" y="997" type="line"/>
      <point x="957" y="0" type="line"/>
      <point x="1140" y="0" type="line"/>
      <point x="1140" y="1037" type="line"/>
      <point x="1313" y="1037" type="line"/>
      <point x="1313" y="1153" type="line"/>
      <point x="841" y="1153" type="line"/>
      <point x="841" y="1037" type="line"/>
      <point x="1006" y="1037" type="line"/>
      <point x="1006" y="211" type="line"/>
      <point x="458" y="1153" type="line"/>
      <point x="76" y="1153" type="line"/>
      <point x="76" y="1037" type="line"/>
      <point x="245" y="1037" type="line"/>
      <point x="245" y="116" type="line"/>
      <point x="76" y="116" type="line"/>
    </contour>
  </outline>
</glyph>
<glyph name="O" format="1">
  <advance width="1390"/>
  <unicode hex="004F"/>
  <outline>
    <contour>
      <point x="692" y="1153" type="move" name="top"/>
    </contour>
    <contour>
      <point x="747" y="0" type="move" name="ogonek"/>
    </contour>
    <contour>
      <point x="694" y="116" type="curve" smooth="yes"/>
      <point x="450" y="116"/>
      <point x="277" y="307"/>
      <point x="277" y="576" type="curve" smooth="yes"/>
      <point x="277" y="845"/>
      <point x="450" y="1036"/>
      <point x="694" y="1037" type="curve" smooth="yes"/>
      <point x="939" y="1036"/>
      <point x="1112" y="845"/>
      <point x="1112" y="576" type="curve" smooth="yes"/>
      <point x="1112" y="307"/>
      <point x="939" y="116"/>
    </contour>
    <contour>
      <point x="694" y="-18" type="curve" smooth="yes"/>
      <point x="1045" y="-18"/>
      <point x="1290" y="234"/>
      <point x="1290" y="575" type="curve" smooth="yes"/>
      <point x="1290" y="924"/>
      <point x="1047" y="1171"/>
      <point x="693" y="1171" type="curve" smooth="yes"/>
      <point x="340" y="1171"/>
      <point x="100" y="923"/>
      <point x="100" y="575" type="curve" smooth="yes"/>
      <point x="100" y="229"/>
      <point x="343" y="-16"/>
    </contour>
  </outline>
</glyph>
<glyph name="P" format="1">
  <advance width="1066"/>
  <unicode hex="0050"/>
  <outline>
    <contour>
      <point x="541" y="1152" type="move" name="top"/>
    </contour>
    <contour>
      <point x="444" y="472" type="line"/>
      <point x="552" y="472" type="line" smooth="yes"/>
      <point x="841" y="472"/>
      <point x="1022" y="605"/>
      <point x="1022" y="816" type="curve" smooth="yes"/>
      <point x="1022" y="1022"/>
      <point x="870" y="1152"/>
      <point x="629" y="1152" type="curve" smooth="yes"/>
      <point x="295" y="1152" type="line"/>
      <point x="295" y="1036" type="line"/>
      <point x="631" y="1036" type="line" smooth="yes"/>
      <point x="770" y="1036"/>
      <point x="857" y="952"/>
      <point x="857" y="818" type="curve" smooth="yes"/>
      <point x="855" y="670"/>
      <point x="749" y="577"/>
      <point x="582" y="577" type="curve" smooth="yes"/>
      <point x="442" y="577" type="line"/>
    </contour>
    <component base="uc_main_stem" xOffset="-39"/>
  </outline>
</glyph>
<glyph name="U" format="1">
  <advance width="1307"/>
  <unicode hex="0055"/>
  <outline>
    <contour>
      <point x="670" y="1153" type="move" name="top"/>
    </contour>
    <contour>
      <point x="755" y="0" type="move" name="ogonek"/>
    </contour>
    <contour>
      <point x="665" y="-18" type="curve" smooth="yes"/>
      <point x="940" y="-18"/>
      <point x="1097" y="106"/>
      <point x="1097" y="380" type="curve" smooth="yes"/>
      <point x="1097" y="1037" type="line"/>
      <point x="1226" y="1037" type="line"/>
      <point x="1226" y="1153" type="line"/>
      <point x="793" y="1153" type="line"/>
      <point x="793" y="1037" type="line"/>
      <point x="935" y="1037" type="line"/>
      <point x="935" y="389" type="line" smooth="yes"/>
      <point x="935" y="202"/>
      <point x="863" y="116"/>
      <point x="672" y="116" type="curve" smooth="yes"/>
      <point x="494" y="116"/>
      <point x="388" y="195"/>
      <point x="388" y="378" type="curve" smooth="yes"/>
      <point x="388" y="1037" type="line"/>
      <point x="530" y="1037" type="line"/>
      <point x="530" y="1153" type="line"/>
      <point x="83" y="1153" type="line"/>
      <point x="83" y="1037" type="line"/>
      <point x="226" y="1037" type="line"/>
      <point x="226" y="382" type="line" smooth="yes"/>
      <point x="226" y="116"/>
      <point x="401" y="-18"/>
    </contour>
  </outline>
</glyph>
<glyph name="e" format="1">
  <advance width="943"/>
  <unicode hex="0065"/>
  <outline>
    <contour>
      <point x="470" y="804" type="move" name="top"/>
    </contour>
    <contour>
      <point x="576" y="0" type="move" name="ogonek"/>
    </contour>
    <contour>
      <point x="496" y="-18" type="curve" smooth="yes"/>
      <point x="665" y="-18"/>
      <point x="760" y="34"/>
      <point x="847" y="138" type="curve"/>
      <point x="769" y="224" type="line"/>
      <point x="684" y="131"/>
      <point x="604" y="107"/>
      <point x="496" y="107" type="curve" smooth="yes"/>
      <point x="324" y="108"/>
      <point x="240" y="206"/>
      <point x="229" y="365" type="curve"/>
      <point x="873" y="365" type="line"/>
      <point x="873" y="631"/>
      <point x="747" y="820"/>
      <point x="490" y="820" type="curve" smooth="yes"/>
      <point x="246" y="820"/>
      <point x="66" y="646"/>
      <point x="66" y="402" type="curve" smooth="yes"/>
      <point x="66" y="151"/>
      <point x="240" y="-18"/>
    </contour>
    <contour>
      <point x="231" y="467" type="line"/>
      <point x="256" y="612"/>
      <point x="341" y="695"/>
      <point x="494" y="695" type="curve" smooth="yes"/>
      <point x="640" y="695"/>
      <point x="713" y="599"/>
      <point x="729" y="467" type="curve"/>
    </contour>
  </outline>
</glyph>
<glyph name="p" format="1">
  <advance width="1078"/>
  <unicode hex="0070"/>
  <outline>
    <contour>
      <point x="634" y="805" type="move" name="top"/>
    </contour>
    <component base="lc_bowl_right" xOffset="16"/>
    <component base="lc_descender_stem" xOffset="22"/>
  </outline>
</glyph>
<glyph name="u" format="1">
  <advance width="990"/>
  <unicode hex="0075"/>
  <outline>
    <contour>
      <point x="471" y="804" type="move" name="top"/>
    </contour>
    <contour>
      <point x="780" y="0" type="move" name="ogonek"/>
    </contour>
    <contour>
      <point x="411" y="-18" type="curve" smooth="yes"/>
      <point x="511" y="-18"/>
      <point x="596" y="21"/>
      <point x="680" y="100" type="curve"/>
      <point x="685" y="0" type="line"/>
      <point x="974" y="0" type="line"/>
      <point x="974" y="116" type="line"/>
      <point x="828" y="116" type="line"/>
      <point x="828" y="804" type="line"/>
      <point x="532" y="804" type="line"/>
      <point x="532" y="688" type="line"/>
      <point x="680" y="688" type="line"/>
      <point x="680" y="250" type="line"/>
      <point x="606" y="155"/>
      <point x="530" y="107"/>
      <point x="439" y="107" type="curve" smooth="yes"/>
      <point x="354" y="107"/>
      <point x="296" y="161"/>
      <point x="296" y="268" type="curve" smooth="yes"/>
      <point x="296" y="804" type="line"/>
      <point x="12" y="804" type="line"/>
      <point x="12" y="688" type="line"/>
      <point x="148" y="688" type="line"/>
      <point x="148" y="261" type="line" smooth="yes"/>
      <point x="148" y="75"/>
      <point x="245" y="-18"/>
    </contour>
  </outline>
</glyph>
<glyph name="x" format="1">
  <advance width="990"/>
  <unicode hex="0078"/>
  <outline>
    <contour>
      <point x="46" y="0" type="line"/>
      <point x="424" y="0" type="line"/>
      <point x="424" y="116" type="line"/>
      <point x="318" y="116" type="line"/>
      <point x="495" y="329" type="line"/>
      <point x="680" y="116" type="line"/>
      <point x="568" y="116" type="line"/>
      <point x="568" y="0" type="line"/>
      <point x="944" y="0" type="line"/>
      <point x="944" y="116" type="line"/>
      <point x="832" y="116" type="line"/>
      <point x="574" y="413" type="line"/>
      <point x="803" y="688" type="line"/>
      <point x="936" y="688" type="line"/>
      <point x="936" y="804" type="line"/>
      <point x="556" y="804" type="line"/>
      <point x="556" y="688" type="line"/>
      <point x="657" y="688" type="line"/>
      <point x="495" y="494" type="line"/>
      <point x="327" y="688" type="line"/>
      <point x="436" y="688" type="line"/>
      <point x="436" y="804" type="line"/>
      <point x="56" y="804" type="line"/>
      <point x="56" y="688" type="line"/>
      <point x="181" y="688" type="line"/>
      <point x="418" y="413" type="line"/>
      <point x="165" y="116" type="line"/>
      <point x="46" y="116" type="line"/>
    </contour>
  </outline>
</glyph>
<glyph name="asciitilde" format="1">
  <advance width="1062"/>
  <unicode hex="007E"/>
  <outline>
    <contour>
      <point x="778" y="441" type="curve" smooth="yes"/>
      <point x="863" y="441"/>
      <point x="933" y="485"/>
      <point x="987" y="573" type="curve"/>
      <point x="924" y="651" type="line"/>
      <point x="883" y="599"/>
      <point x="833" y="563"/>
      <point x="775" y="563" type="curve" smooth="yes"/>
      <point x="648" y="563"/>
      <point x="486" y="709"/>
      <point x="307" y="709" type="curve" smooth="yes"/>
      <point x="216" y="709"/>
      <point x="140" y="664"/>
      <point x="77" y="573" type="curve"/>
      <point x="132" y="496" type="line"/>
      <point x="176" y="551"/>
      <point x="240" y="588"/>
      <point x="304" y="588" type="curve" smooth="yes"/>
      <point x="435" y="588"/>
      <point x="592" y="441"/>
    </contour>
  </outline>
</glyph>
<glyph name="section" format="1">
  <advance width="877"/>
  <unicode hex="00A7"/>
  <outline>
    <contour>
      <point x="481" y="-306" type="curve" smooth="yes"/>
      <point x="648" y="-306"/>
      <point x="781" y="-190"/>
      <point x="781" y="-21" type="curve" smooth="yes"/>
      <point x="781" y="66"/>
      <point x="737" y="136"/>
      <point x="650" y="187" type="curve"/>
      <point x="756" y="254"/>
      <point x="809" y="336"/>
      <point x="809" y="433" type="curve" smooth="yes"/>
      <point x="809" y="597"/>
      <point x="679" y="655"/>
      <point x="534" y="712" type="curve" smooth="yes"/>
      <point x="435" y="750"/>
      <point x="257" y="795"/>
      <point x="257" y="927" type="curve" smooth="yes"/>
      <point x="257" y="1026"/>
      <point x="358" y="1068"/>
      <point x="466" y="1068" type="curve" smooth="yes"/>
      <point x="561" y="1068"/>
      <point x="620" y="1024"/>
      <point x="645" y="938" type="curve"/>
      <point x="770" y="983" type="line"/>
      <point x="730" y="1114"/>
      <point x="610" y="1185"/>
      <point x="450" y="1185" type="curve" smooth="yes"/>
      <point x="448" y="1185" type="line" smooth="yes"/>
      <point x="276" y="1185"/>
      <point x="118" y="1077"/>
      <point x="118" y="913" type="curve" smooth="yes"/>
      <point x="118" y="815"/>
      <point x="161" y="740"/>
      <point x="248" y="688" type="curve"/>
      <point x="161" y="630"/>
      <point x="88" y="566"/>
      <point x="88" y="445" type="curve" smooth="yes"/>
      <point x="88" y="255"/>
      <point x="276" y="197"/>
      <point x="466" y="124" type="curve" smooth="yes"/>
      <point x="547" y="92"/>
      <point x="640" y="56"/>
      <point x="640" y="-53" type="curve" smooth="yes"/>
      <point x="640" y="-133"/>
      <point x="553" y="-182"/>
      <point x="468" y="-183" type="curve" smooth="yes"/>
      <point x="372" y="-183"/>
      <point x="303" y="-143"/>
      <point x="262" y="-63" type="curve"/>
      <point x="160" y="-146" type="line"/>
      <point x="228" y="-253"/>
      <point x="335" y="-306"/>
    </contour>
    <contour>
      <point x="560" y="234" type="curve"/>
      <point x="482" y="273"/>
      <point x="395" y="301"/>
      <point x="321" y="338" type="curve" smooth="yes"/>
      <point x="266" y="365"/>
      <point x="213" y="401"/>
      <point x="213" y="476" type="curve" smooth="yes"/>
      <point x="213" y="563"/>
      <point x="265" y="601"/>
      <point x="331" y="640" type="curve"/>
      <point x="408" y="602"/>
      <point x="498" y="576"/>
      <point x="572" y="540" type="curve" smooth="yes"/>
      <point x="628" y="513"/>
      <point x="685" y="479"/>
      <point x="685" y="402" type="curve" smooth="yes"/>
      <point x="685" y="333"/>
      <point x="643" y="277"/>
    </contour>
  </outline>
</glyph>
<glyph name="cedilla" format="1">
  <advance width="587"/>
  <unicode hex="00B8"/>
  <outline>
    <contour>
      <point x="244" y="0" type="move" name="_bot"/>
    </contour>
    <contour>
      <point x="230" y="-391" type="curve" smooth="yes"/>
      <point x="330" y="-391"/>
      <point x="380" y="-331"/>
      <point x="380" y="-268" type="curve" smooth="yes"/>
      <point x="380" y="-209"/>
      <point x="336" y="-147"/>
      <point x="248" y="-130" type="curve"/>
      <point x="272" y="6" type="line"/>
      <point x="206" y="6" type="line"/>
      <point x="152" y="-148" type="line"/>
      <point x="229" y="-157"/>
      <point x="264" y="-198"/>
      <point x="264" y="-237" type="curve" smooth="yes"/>
      <point x="264" y="-276"/>
      <point x="230" y="-312"/>
      <point x="171" y="-312" type="curve" smooth="yes"/>
      <point x="146" y="-312"/>
      <point x="108" y="-303"/>
      <point x="75" y="-287" type="curve"/>
      <point x="75" y="-345" type="line"/>
      <point x="133" y="-378"/>
      <point x="185" y="-391"/>
    </contour>
  </outline>
</glyph>
<glyph name="germandbls" format="1">
  <advance width="1114"/>
  <unicode hex="00DF"/>
  <outline>
    <contour>
      <point x="72" y="0" type="line"/>
      <point x="493" y="0" type="line"/>
      <point x="493" y="116" type="line"/>
      <point x="362" y="116" type="line"/>
      <point x="362" y="790" type="line" smooth="yes"/>
      <point x="362" y="953"/>
      <point x="452" y="1055"/>
      <point x="596" y="1055" type="curve" smooth="yes"/>
      <point x="710" y="1055"/>
      <point x="782" y="985"/>
      <point x="782" y="874" type="curve" smooth="yes"/>
      <point x="782" y="752"/>
      <point x="701" y="675"/>
      <point x="573" y="675" type="curve"/>
      <point x="573" y="569" type="line"/>
      <point x="768" y="571"/>
      <point x="890" y="485"/>
      <point x="889" y="346" type="curve" smooth="yes"/>
      <point x="889" y="205"/>
      <point x="783" y="116"/>
      <point x="613" y="116" type="curve"/>
      <point x="613" y="0" type="line"/>
      <point x="812" y="0"/>
      <point x="966" y="80"/>
      <point x="1012" y="208" type="curve" smooth="yes"/>
      <point x="1093" y="434"/>
      <point x="991" y="601"/>
      <point x="748" y="641" type="curve"/>
      <point x="857" y="675"/>
      <point x="925" y="771"/>
      <point x="925" y="889" type="curve"/>
      <point x="924" y="1062"/>
      <point x="793" y="1171"/>
      <point x="585" y="1171" type="curve" smooth="yes"/>
      <point x="362" y="1171"/>
      <point x="222" y="1022"/>
      <point x="222" y="786" type="curve" smooth="yes"/>
      <point x="222" y="116" type="line"/>
      <point x="72" y="116" type="line"/>
    </contour>
  </outline>
</glyph>
<glyph name="lslash" format="1">
  <advance width="605"/>
  <unicode hex="0142"/>
  <outline>
    <contour>
      <point x="84" y="415" type="line"/>
      <point x="550" y="627" type="line"/>
      <point x="550" y="763" type="line"/>
      <point x="84" y="544" type="line"/>
    </contour>
  </outline>
</glyph>
<glyph name="uni030F" format="1">
  <advance width="587"/>
  <unicode hex="030F"/>
  <outline>
    <contour>
      <point x="349" y="805" type="move" name="_top"/>
    </contour>
    <contour>
      <point x="181" y="899" type="line"/>
      <point x="277" y="899" type="line"/>
      <point x="187" y="1171" type="line"/>
      <point x="-3" y="1171" type="line"/>
    </contour>
    <contour>
      <point x="443" y="899" type="line"/>
      <point x="538" y="899" type="line"/>
      <point x="448" y="1171" type="line"/>
      <point x="258" y="1171" type="line"/>
    </contour>
  </outline>
</glyph>
<glyph name="daggerdbl" format="1">
  <advance width="918"/>
  <unicode hex="2021"/>
  <outline>
    <contour>
      <point x="389" y="-111" type="line"/>
      <point x="531" y="-111" type="line"/>
      <point x="490" y="176" type="line"/>
      <point x="739" y="136" type="line"/>
      <point x="739" y="267" type="line"/>
      <point x="490" y="224" type="line"/>
      <point x="546" y="397" type="line"/>
      <point x="512" y="418"/>
      <point x="490" y="470"/>
      <point x="479" y="555" type="curve"/>
      <point x="490" y="636"/>
      <point x="512" y="688"/>
      <point x="546" y="709" type="curve"/>
      <point x="490" y="881" type="line"/>
      <point x="739" y="839" type="line"/>
      <point x="739" y="970" type="line"/>
      <point x="490" y="930" type="line"/>
      <point x="531" y="1216" type="line"/>
      <point x="389" y="1216" type="line"/>
      <point x="428" y="930" type="line"/>
      <point x="179" y="970" type="line"/>
      <point x="179" y="839" type="line"/>
      <point x="428" y="881" type="line"/>
      <point x="374" y="709" type="line"/>
      <point x="407" y="693"/>
      <point x="428" y="642"/>
      <point x="438" y="557" type="curve"/>
      <point x="429" y="475"/>
      <point x="407" y="421"/>
      <point x="374" y="397" type="curve"/>
      <point x="428" y="224" type="line"/>
      <point x="179" y="267" type="line"/>
      <point x="179" y="136" type="line"/>
      <point x="428" y="176" type="line"/>
    </contour>
  </outline>
</glyph>
<glyph name="summation" format="1">
  <advance width="1092"/>
  <unicode hex="2211"/>
  <outline>
    <contour>
      <point x="76" y="0" type="line"/>
      <point x="1008" y="0" type="line"/>
      <point x="1008" y="328" type="line"/>
      <point x="879" y="328" type="line"/>
      <point x="879" y="116" type="line"/>
      <point x="331" y="116" type="line"/>
      <point x="713" y="582" type="line"/>
      <point x="714" y="613" type="line"/>
      <point x="371" y="1037" type="line"/>
      <point x="877" y="1037" type="line"/>
      <point x="877" y="818" type="line"/>
      <point x="1008" y="818" type="line"/>
      <point x="1008" y="1153" type="line"/>
      <point x="76" y="1153" type="line"/>
      <point x="76" y="1037" type="line"/>
      <point x="192" y="1037" type="line"/>
      <point x="567" y="566" type="line"/>
      <point x="192" y="116" type="line"/>
      <point x="76" y="116" type="line"/>
    </contour>
  </outline>
</glyph>
<glyph name="integral" format="1">
  <advance width="883"/>
  <unicode hex="222B"/>
  <outline>
    <contour>
      <point x="216" y="-255" type="curve" smooth="yes"/>
      <point x="311" y="-255"/>
      <point x="381" y="-223"/>
      <point x="424" y="-157" type="curve" smooth="yes"/>
      <point x="467" y="-91"/>
      <point x="495" y="5"/>
      <point x="508" y="131" type="curve" smooth="yes"/>
      <point x="525" y="313"/>
      <point x="520" y="391"/>
      <point x="520" y="636" type="curve" smooth="yes"/>
      <point x="520" y="784"/>
      <point x="526" y="895"/>
      <point x="538" y="969" type="curve" smooth="yes"/>
      <point x="550" y="1043"/>
      <point x="564" y="1091"/>
      <point x="578" y="1115" type="curve" smooth="yes"/>
      <point x="592" y="1139"/>
      <point x="613" y="1152"/>
      <point x="641" y="1152" type="curve" smooth="yes"/>
      <point x="701" y="1152"/>
      <point x="712" y="1100"/>
      <point x="712" y="1023" type="curve"/>
      <point x="797" y="1023"/>
      <point x="839" y="1054"/>
      <point x="839" y="1117" type="curve" smooth="yes"/>
      <point x="839" y="1196"/>
      <point x="774" y="1236"/>
      <point x="643" y="1236" type="curve" smooth="yes"/>
      <point x="473" y="1235"/>
      <point x="378" y="1087"/>
      <point x="359" y="792" type="curve" smooth="yes"/>
      <point x="352" y="701"/>
      <point x="350" y="557"/>
      <point x="350" y="362" type="curve" smooth="yes"/>
      <point x="350" y="167"/>
      <point x="345" y="36"/>
      <point x="336" y="-30" type="curve" smooth="yes"/>
      <point x="324" y="-125"/>
      <point x="294" y="-172"/>
      <point x="245" y="-172" type="curve" smooth="yes"/>
      <point x="171" y="-172"/>
      <point x="158" y="-130"/>
      <point x="157" y="-41" type="curve"/>
      <point x="73" y="-41"/>
      <point x="31" y="-73"/>
      <point x="31" y="-136" type="curve" smooth="yes"/>
      <point x="31" y="-215"/>
      <point x="93" y="-255"/>
    </contour>
  </outline>
</glyph>
<glyph name="notequal" format="1">
  <advance width="1145"/>
  <unicode hex="2260"/>
  <outline>
    <contour>
      <point x="387" y="61" type="line"/>
      <point x="508" y="61" type="line"/>
      <point x="563" y="280" type="line"/>
      <point x="1012" y="280" type="line"/>
      <point x="1012" y="401" type="line"/>
      <point x="594" y="401" type="line"/>
      <point x="668" y="683" type="line"/>
      <point x="1012" y="683" type="line"/>
      <point x="1012" y="804" type="line"/>
      <point x="698" y="804" type="line"/>
      <point x="756" y="1023" type="line"/>
      <point x="637" y="1023" type="line"/>
      <point x="580" y="804" type="line"/>
      <point x="133" y="804" type="line"/>
      <point x="133" y="683" type="line"/>
      <point x="549" y="683" type="line"/>
      <point x="475" y="401" type="line"/>
      <point x="133" y="401" type="line"/>
      <point x="133" y="280" type="line"/>
      <point x="444" y="280" type="line"/>
    </contour>
  </outline>
</glyph>
<glyph name="fl" format="1">
  <advance width="1173"/>
  <unicode hex="FB02"/>
  <outline>
    <contour>
      <point x="80" y="0" type="line"/>
      <point x="531" y="0" type="line"/>
      <point x="531" y="116" type="line"/>
      <point x="369" y="116" type="line"/>
      <point x="369" y="688" type="line"/>
      <point x="532" y="688" type="line"/>
      <point x="532" y="804" type="line"/>
      <point x="369" y="804" type="line"/>
      <point x="369" y="912" type="line" smooth="yes"/>
      <point x="369" y="1066"/>
      <point x="528" y="1115"/>
      <point x="658" y="1115" type="curve" smooth="yes"/>
      <point x="749" y="1115"/>
      <point x="827" y="1091"/>
      <point x="827" y="1063" type="curve" smooth="yes"/>
      <point x="827" y="116" type="line"/>
      <point x="675" y="116" type="line"/>
      <point x="675" y="0" type="line"/>
      <point x="1121" y="0" type="line"/>
      <point x="1121" y="116" type="line"/>
      <point x="975" y="116" type="line"/>
      <point x="975" y="1082" type="line" smooth="yes"/>
      <point x="975" y="1175"/>
      <point x="818" y="1236"/>
      <point x="648" y="1236" type="curve" smooth="yes"/>
      <point x="444" y="1236"/>
      <point x="221" y="1148"/>
      <point x="221" y="921" type="curve" smooth="yes"/>
      <point x="221" y="804" type="line"/>
      <point x="92" y="804" type="line"/>
      <point x="92" y="688" type="line"/>
      <point x="221" y="688" type="line"/>
      <point x="221" y="116" type="line"/>
      <point x="80" y="116" type="line"/>
    </contour>
  </outline>
</glyph>
